<svg width="33" height="30" viewBox="0 0 33 30" fill="none" xmlns="http://www.w3.org/2000/svg">
<path d="M15.7593 6.68615L5.89056 0H27.0992L17.23 6.68617C16.7855 6.98733 16.2038 6.98732 15.7593 6.68615Z" fill="#FF721C"/>
<path d="M32.9523 16.3639V10.5894L28.511 13.5994C27.785 14.0914 27.3498 14.9142 27.3498 15.7947V21.5691L31.791 18.5592C32.517 18.0672 32.9523 17.2443 32.9523 16.3639Z" fill="#FF721C"/>
<path d="M17.4305 23.6559L23.7389 30H9.26074L15.5691 23.6559C16.0831 23.139 16.9165 23.139 17.4305 23.6559Z" fill="#FF721C"/>
<path d="M5.63863 21.5622V15.7878C5.63863 14.9073 5.20337 14.0845 4.47736 13.5925L0.0473633 10.5901V16.3646C0.0473633 17.245 0.482622 18.0679 1.20863 18.5599L5.63863 21.5622Z" fill="#FF721C"/>
<path d="M32.9523 5.77509V0.00064631L20.0316 8.75731C18.8519 9.55687 18.1446 10.894 18.1446 12.3247V17.9826C18.1446 18.6847 18.4219 19.3581 18.9156 19.8545L24.0674 25.0355V24.3025H24.0654V14.9597C24.0654 13.8612 24.6102 12.8342 25.5197 12.2181L31.791 7.9704C32.517 7.47836 32.9523 6.65553 32.9523 5.77509Z" fill="#FF721C"/>
<path d="M14.8541 17.9836C14.8541 18.6857 14.5767 19.3591 14.0831 19.8556L8.93118 25.0366V17.6856L8.92302 17.6801V16.6054L8.93118 16.6109V14.9608C8.93118 13.8626 8.3867 12.8359 7.47762 12.2197L1.20863 7.9711C0.482622 7.47906 0.0473633 6.65623 0.0473633 5.77579V0.00134558L12.967 8.75731C14.1468 9.55687 14.8541 10.894 14.8541 12.3247V17.9836Z" fill="#FF721C"/>
</svg>
