<svg width="18" height="21" viewBox="0 0 18 21" fill="none" xmlns="http://www.w3.org/2000/svg">
<path fill-rule="evenodd" clip-rule="evenodd" d="M9.894 1.63929C10.636 0.770199 11.8774 0.133184 12.9123 0.0910357C12.9972 0.0876874 13.0726 0.151369 13.0821 0.23711C13.2021 1.33126 12.8054 2.55276 12.0208 3.50458C11.2753 4.40597 10.1837 4.96578 9.17183 4.96578C9.1008 4.96571 9.0295 4.96296 8.95965 4.95751C8.88238 4.95153 8.81988 4.89225 8.8097 4.81544C8.64741 3.58776 9.26342 2.36979 9.894 1.63929ZM2.91797 17.5497C1.04599 14.8467 -0.0301721 10.3888 1.66265 7.45119C2.55288 5.90287 4.16764 4.92519 5.87655 4.90005C5.89355 4.89972 5.91082 4.89952 5.92835 4.89952C6.66331 4.89952 7.35758 5.175 7.9701 5.4181L7.97061 5.41831C8.42845 5.59994 8.82382 5.7568 9.12852 5.7568C9.39979 5.7568 9.79311 5.60173 10.2485 5.42217C10.9081 5.16206 11.7292 4.83834 12.5864 4.83834C12.6961 4.83834 12.8055 4.84365 12.9114 4.85422C13.6411 4.8856 15.4538 5.14644 16.6364 6.87714C16.6614 6.91364 16.6706 6.95881 16.6618 7.0022C16.653 7.04566 16.627 7.08368 16.5898 7.10764L16.5738 7.11762C16.2302 7.3302 14.5168 8.50306 14.5388 10.7179C14.5625 13.444 16.8171 14.4442 17.0741 14.5493L17.0861 14.5544C17.1623 14.5894 17.1999 14.6762 17.1733 14.7557L17.1677 14.7735C17.028 15.2208 16.6142 16.3915 15.7891 17.5971L15.789 17.5974C14.9984 18.752 14.1022 20.0609 12.6428 20.088C11.9625 20.1008 11.5014 19.9013 11.0543 19.7079L11.0505 19.7063L11.0503 19.7062C10.5955 19.5094 10.1252 19.3059 9.38837 19.3059C8.61368 19.3059 8.11979 19.5163 7.64224 19.7198L7.64171 19.72C7.21652 19.9011 6.7767 20.0884 6.16817 20.1126C6.14309 20.1136 6.1186 20.1141 6.09418 20.1141C4.79842 20.1141 3.85238 18.9011 2.91797 17.5497Z" fill="#080610"/>
</svg>
