<svg width="18" height="19" viewBox="0 0 18 19" fill="none" xmlns="http://www.w3.org/2000/svg">
<path fill-rule="evenodd" clip-rule="evenodd" d="M12.1085 0.981708C11.6943 0.982794 11.3594 1.31946 11.3605 1.73367C11.3616 2.14788 11.6983 2.48279 12.1125 2.4817L15.4929 2.47284L9.48975 8.88161C9.20658 9.18392 9.22209 9.65854 9.52439 9.94171C9.8267 10.2249 10.3013 10.2094 10.5845 9.90706L16.4773 3.61605V6.9846C16.4773 7.39882 16.8131 7.7346 17.2273 7.7346C17.6415 7.7346 17.9773 7.39882 17.9773 6.9846V1.71829C17.9773 1.51904 17.898 1.32798 17.757 1.18727C17.6159 1.04656 17.4246 0.967773 17.2254 0.968295L12.1085 0.981708ZM6.48392 2.54327C6.87407 2.40416 7.07758 1.97511 6.93847 1.58495C6.79936 1.19479 6.37031 0.991281 5.98015 1.13039C4.56752 1.63407 3.30307 2.48261 2.30161 3.59899C1.30015 4.71537 0.593411 6.06422 0.245553 7.52306C-0.102305 8.9819 -0.0802591 10.5045 0.309689 11.9527C0.699637 13.4008 1.44514 14.7287 2.4785 15.8156C3.51185 16.9025 4.80034 17.7141 6.22696 18.1766C7.65359 18.6392 9.17316 18.7381 10.6477 18.4643C12.1222 18.1906 13.505 17.5528 14.6706 16.609C15.8361 15.6652 16.7474 14.4452 17.3217 13.0598C17.4804 12.6772 17.2988 12.2384 16.9161 12.0798C16.5335 11.9211 16.0947 12.1027 15.9361 12.4853C15.4574 13.64 14.6979 14.6567 13.7266 15.4433C12.7552 16.2299 11.6028 16.7614 10.3739 16.9895C9.14499 17.2177 7.87857 17.1353 6.68961 16.7498C5.50065 16.3643 4.42681 15.6879 3.5656 14.782C2.70439 13.8762 2.08308 12.7696 1.7581 11.5627C1.43311 10.3558 1.41474 9.08679 1.70465 7.87098C1.99455 6.65517 2.58356 5.53103 3.41818 4.60063C4.25281 3.67023 5.30661 2.96304 6.48392 2.54327Z" fill="white"/>
</svg>
