<svg width="21" height="15" viewBox="0 0 21 15" fill="none" xmlns="http://www.w3.org/2000/svg">
<path fill-rule="evenodd" clip-rule="evenodd" d="M15.1442 14.6994C15.1442 14.6994 14.5185 13.952 13.997 13.2915C16.2739 12.6484 17.1429 11.2232 17.1429 11.2232C16.4303 11.6925 15.7525 12.0227 15.1442 12.2487C14.2751 12.6137 13.4408 12.857 12.6239 12.9961C10.9554 13.3089 9.42588 13.222 8.12232 12.9787C7.13162 12.7875 6.27996 12.5094 5.56735 12.2313C5.16759 12.0749 4.73307 11.8837 4.29855 11.6403C4.27248 11.623 4.24641 11.6099 4.22034 11.5969C4.19427 11.5839 4.1682 11.5708 4.14213 11.5534C4.10736 11.5361 4.08998 11.5187 4.0726 11.5013C3.75975 11.3275 3.58594 11.2058 3.58594 11.2058C3.58594 11.2058 4.42022 12.5963 6.62758 13.2568C6.10615 13.9172 5.46306 14.6994 5.46306 14.6994C1.62191 14.5777 0.161926 12.0575 0.161926 12.0575C0.161926 6.46088 2.66476 1.92449 2.66476 1.92449C5.16759 0.0473675 7.54876 0.0995097 7.54876 0.0995097L7.72257 0.30808C4.59403 1.21188 3.15142 2.58496 3.15142 2.58496C3.15142 2.58496 3.5338 2.37639 4.17689 2.08092C6.03663 1.26402 7.514 1.03807 8.12232 0.98593L8.16129 0.979342L8.1613 0.979341C8.24897 0.964413 8.32676 0.951168 8.4178 0.951168C9.47803 0.812123 10.6773 0.777361 11.9287 0.916408C13.5799 1.1076 15.3527 1.59426 17.1603 2.58496C17.1603 2.58496 15.7873 1.2814 12.8325 0.377602L13.0758 0.0995097C13.0758 0.0995097 15.457 0.0473675 17.9598 1.92449C17.9598 1.92449 20.4627 6.46088 20.4627 12.0575C20.4627 12.0575 18.9853 14.5777 15.1442 14.6994ZM6.77268 7.00007C5.78197 7.00007 4.99983 7.86911 4.99983 8.92933C4.99983 9.98956 5.79935 10.8586 6.77268 10.8586C7.76338 10.8586 8.54552 9.98956 8.54552 8.92933C8.56289 7.86911 7.76338 7.00007 6.77268 7.00007ZM13.1167 7.00007C12.126 7.00007 11.3438 7.86911 11.3438 8.92933C11.3438 9.98956 12.1433 10.8586 13.1167 10.8586C14.1074 10.8586 14.8895 9.98956 14.8895 8.92933C14.8895 7.86911 14.1074 7.00007 13.1167 7.00007Z" fill="white"/>
</svg>
