<svg width="20" height="20" viewBox="0 0 20 20" fill="none" xmlns="http://www.w3.org/2000/svg">
<path d="M9.64755 6.43194C7.87559 6.43194 6.42953 7.878 6.42953 9.64997C6.42953 11.4219 7.87559 12.868 9.64755 12.868C11.4195 12.868 12.8656 11.4219 12.8656 9.64997C12.8656 7.878 11.4195 6.43194 9.64755 6.43194ZM19.2992 9.64997C19.2992 8.31737 19.3113 6.99684 19.2364 5.66666C19.1616 4.12162 18.8091 2.7504 17.6793 1.62059C16.5471 0.488371 15.1783 0.138323 13.6333 0.0634852C12.3007 -0.0113526 10.9801 0.000718067 9.64997 0.000718067C8.31737 0.000718067 6.99685 -0.0113526 5.66666 0.0634852C4.12163 0.138323 2.7504 0.490785 1.62059 1.62059C0.488371 2.75282 0.138323 4.12162 0.0634852 5.66666C-0.0113526 6.99926 0.000718067 8.31978 0.000718067 9.64997C0.000718067 10.9801 -0.0113526 12.3031 0.0634852 13.6333C0.138323 15.1783 0.490785 16.5495 1.62059 17.6793C2.75282 18.8116 4.12163 19.1616 5.66666 19.2364C6.99926 19.3113 8.31978 19.2992 9.64997 19.2992C10.9826 19.2992 12.3031 19.3113 13.6333 19.2364C15.1783 19.1616 16.5495 18.8091 17.6793 17.6793C18.8116 16.5471 19.1616 15.1783 19.2364 13.6333C19.3137 12.3031 19.2992 10.9826 19.2992 9.64997ZM9.64755 14.6013C6.90752 14.6013 4.69619 12.39 4.69619 9.64997C4.69619 6.90994 6.90752 4.6986 9.64755 4.6986C12.3876 4.6986 14.5989 6.90994 14.5989 9.64997C14.5989 12.39 12.3876 14.6013 9.64755 14.6013ZM14.8017 5.65218C14.162 5.65218 13.6453 5.13556 13.6453 4.49581C13.6453 3.85607 14.162 3.33945 14.8017 3.33945C15.4414 3.33945 15.9581 3.85607 15.9581 4.49581C15.9583 4.64772 15.9285 4.79818 15.8704 4.93856C15.8124 5.07894 15.7272 5.2065 15.6198 5.31391C15.5124 5.42133 15.3848 5.5065 15.2445 5.56454C15.1041 5.62259 14.9536 5.65237 14.8017 5.65218Z" fill="white"/>
</svg>
