<svg width="16" height="15" viewBox="0 0 16 15" fill="none" xmlns="http://www.w3.org/2000/svg">
<path d="M15.6575 8.25371C15.5493 8.16169 15.4182 8.10279 15.2791 8.0837C15.14 8.06461 14.9984 8.08611 14.8706 8.14574C14.0781 8.5189 13.2165 8.71096 12.345 8.7087C10.7328 8.70669 9.18676 8.04892 8.04398 6.87878C6.90119 5.70865 6.25434 4.12107 6.24445 2.46219C6.24786 1.94229 6.31075 1.42462 6.43181 0.919847C6.4575 0.785307 6.44786 0.646152 6.40389 0.516719C6.35993 0.387286 6.28322 0.272255 6.18167 0.183477C6.08013 0.0946997 5.95741 0.0353859 5.82618 0.0116467C5.69494 -0.0120925 5.55992 0.000601303 5.43504 0.0484204C4.26015 0.592027 3.23883 1.43403 2.46704 2.49534C1.69525 3.55665 1.19831 4.80242 1.02292 6.11562C0.847525 7.42882 0.999428 8.76634 1.46436 10.0025C1.92929 11.2387 2.69199 12.333 3.6808 13.1826C4.66962 14.0322 5.85209 14.6092 7.11714 14.8594C8.38218 15.1096 9.68828 15.0248 10.9127 14.613C12.1372 14.2011 13.2398 13.4758 14.117 12.505C14.9941 11.5342 15.6171 10.35 15.9273 9.06344C15.9651 8.91614 15.9597 8.76062 15.9116 8.61652C15.8636 8.47241 15.7752 8.34616 15.6575 8.25371ZM8.53776 13.4129C7.28 13.4037 6.05573 12.9948 5.03258 12.242C4.00943 11.4892 3.2374 10.4295 2.82222 9.20775C2.40704 7.98604 2.36899 6.66215 2.71329 5.41733C3.05759 4.17252 3.76741 3.06764 4.74555 2.25398V2.46219C4.74753 4.53548 5.54882 6.52327 6.97356 7.9893C8.39829 9.45534 10.3301 10.2799 12.345 10.2819C12.874 10.2839 13.4017 10.227 13.9188 10.1122C13.4016 11.119 12.6271 11.9614 11.6788 12.5485C10.7305 13.1356 9.64446 13.4451 8.53776 13.4437V13.4129Z" fill="#FFCD1C"/>
<path d="M8.53776 13.4129C7.28 13.4037 6.05573 12.9948 5.03258 12.242C4.00943 11.4892 3.2374 10.4295 2.82222 9.20775C2.40704 7.98604 2.36899 6.66215 2.71329 5.41733C3.05759 4.17252 3.76741 3.06764 4.74555 2.25398V2.46219C4.74753 4.53548 5.54882 6.52327 6.97356 7.9893C8.39829 9.45534 10.3301 10.2799 12.345 10.2819C12.874 10.2839 13.4017 10.227 13.9188 10.1122C13.4016 11.119 12.6271 11.9614 11.6788 12.5485C10.7305 13.1356 9.64446 13.4451 8.53776 13.4437V13.4129Z" fill="#FFCD1C"/>
</svg>
