<svg width="21" height="17" viewBox="0 0 21 17" fill="none" xmlns="http://www.w3.org/2000/svg">
<path fill-rule="evenodd" clip-rule="evenodd" d="M13.857 13.3796C13.9845 13.502 13.9845 13.7016 13.857 13.8255C13.1595 14.4986 12.066 14.8265 10.5105 14.8265L10.4985 14.8236L10.4865 14.8265C8.9325 14.8265 7.8375 14.4986 7.14 13.824C7.0125 13.7016 7.0125 13.502 7.14 13.3796C7.266 13.2572 7.473 13.2572 7.6005 13.3796C8.169 13.9289 9.1125 14.197 10.4865 14.197L10.4985 14.1999L10.5105 14.197C11.883 14.197 12.8265 13.9289 13.3965 13.3796C13.524 13.2572 13.731 13.2572 13.857 13.3796ZM8.697 9.85632C8.697 9.11757 8.076 8.51725 7.314 8.51725C6.5505 8.51725 5.9295 9.11757 5.9295 9.85632C5.9295 10.5936 6.5505 11.1939 7.314 11.1939C8.076 11.1954 8.697 10.5951 8.697 9.85632ZM21 8.31325C21 7.07326 19.9575 6.06494 18.675 6.06494C18.0495 6.06494 17.4825 6.30828 17.064 6.69878C15.6001 5.76287 13.6583 5.14183 11.5003 4.98748L12.8473 1.92775L15.9173 2.54313C16.2037 3.20897 16.8836 3.67821 17.6745 3.67821C18.723 3.67821 19.575 2.85349 19.575 1.83935C19.575 0.825208 18.723 0.000488281 17.6745 0.000488281C16.9782 0.000488281 16.3716 0.365248 16.0406 0.905579L13.1677 0.329688C12.8969 0.275399 12.6255 0.29176 12.3749 0.36779L12.1185 0.309393C11.9535 0.270053 11.784 0.363307 11.733 0.520674L11.6258 0.848469C11.5167 0.97198 11.4249 1.11372 11.3557 1.27104L9.7297 4.96433C7.46695 5.07636 5.42868 5.70464 3.8985 6.66818C3.483 6.29662 2.9325 6.06349 2.3235 6.06349C1.0425 6.06494 0 7.07326 0 8.31325C0 9.13797 0.4665 9.85195 1.152 10.2439C1.107 10.4829 1.077 10.7262 1.077 10.9725C1.077 14.2961 5.2845 17.0005 10.4565 17.0005C15.6285 17.0005 19.836 14.2961 19.836 10.9725C19.836 10.7393 19.8105 10.5106 19.77 10.2847C20.499 9.90441 21 9.16857 21 8.31325ZM13.692 8.5187C12.9285 8.5187 12.309 9.11903 12.309 9.85778C12.309 10.5951 12.93 11.1954 13.692 11.1954C14.454 11.1954 15.075 10.5951 15.075 9.85778C15.075 9.11903 14.4555 8.5187 13.692 8.5187Z" fill="white"/>
</svg>
