<svg width="24" height="25" viewBox="0 0 24 25" fill="none" xmlns="http://www.w3.org/2000/svg">
<path d="M3.95251 3L4.22261 3.72991L4.95251 4L4.22261 4.27009L3.95251 5L3.68242 4.27009L2.95251 4L3.68242 3.72991L3.95251 3Z" fill="#F6F4F1"/>
<path d="M20.4525 6L20.8577 7.09486L21.9525 7.5L20.8577 7.90514L20.4525 9L20.0474 7.90514L18.9525 7.5L20.0474 7.09486L20.4525 6Z" fill="#F6F4F1"/>
<path d="M12.4525 0L12.8577 1.09486L13.9525 1.5L12.8577 1.90514L12.4525 3L12.0474 1.90514L10.9525 1.5L12.0474 1.09486L12.4525 0Z" fill="#F6F4F1"/>
<path d="M20.4525 21L20.5876 21.365L20.9525 21.5L20.5876 21.635L20.4525 22L20.3175 21.635L19.9525 21.5L20.3175 21.365L20.4525 21Z" fill="#F6F4F1"/>
<path d="M14.4525 24L14.5876 24.365L14.9525 24.5L14.5876 24.635L14.4525 25L14.3175 24.635L13.9525 24.5L14.3175 24.365L14.4525 24Z" fill="#F6F4F1"/>
<path d="M8.45251 23L8.58756 23.365L8.95251 23.5L8.58756 23.635L8.45251 24L8.31747 23.635L7.95251 23.5L8.31747 23.365L8.45251 23Z" fill="#F6F4F1"/>
<path d="M2.45251 10L2.58756 10.365L2.95251 10.5L2.58756 10.635L2.45251 11L2.31747 10.635L1.95251 10.5L2.31747 10.365L2.45251 10Z" fill="#F6F4F1"/>
<path d="M2.45251 19L2.85765 20.0949L3.95251 20.5L2.85765 20.9051L2.45251 22L2.04738 20.9051L0.952515 20.5L2.04738 20.0949L2.45251 19Z" fill="#F6F4F1"/>
<path d="M14.9525 9L15.2226 8.27009L15.9525 8L15.2226 7.72991L14.9525 7L14.6824 7.72991L13.9525 8L14.6824 8.27009L14.9525 9Z" fill="#F6F4F1"/>
<path d="M23.4525 12L23.5876 12.365L23.9525 12.5L23.5876 12.635L23.4525 13L23.3175 12.635L22.9525 12.5L23.3175 12.365L23.4525 12Z" fill="#F6F4F1"/>
<path d="M16.4525 3L16.5876 3.36495L16.9525 3.5L16.5876 3.63505L16.4525 4L16.3175 3.63505L15.9525 3.5L16.3175 3.36495L16.4525 3Z" fill="#F6F4F1"/>
</svg>
