<svg width="16" height="16" viewBox="0 0 16 16" fill="none" xmlns="http://www.w3.org/2000/svg">
<path d="M3.23 11.75L2.6975 12.2825C2.55781 12.423 2.47941 12.6131 2.47941 12.8113C2.47941 13.0094 2.55781 13.1995 2.6975 13.34C2.83802 13.4797 3.02811 13.5581 3.22625 13.5581C3.42439 13.5581 3.61448 13.4797 3.755 13.34L4.2875 12.8075C4.41037 12.664 4.47457 12.4795 4.46728 12.2907C4.45999 12.102 4.38174 11.9229 4.24817 11.7893C4.1146 11.6558 3.93555 11.5775 3.74679 11.5702C3.55803 11.5629 3.37348 11.6271 3.23 11.75ZM2.75 8C2.75 7.80109 2.67098 7.61032 2.53033 7.46967C2.38968 7.32902 2.19891 7.25 2 7.25H1.25C1.05109 7.25 0.860322 7.32902 0.71967 7.46967C0.579018 7.61032 0.5 7.80109 0.5 8C0.5 8.19891 0.579018 8.38968 0.71967 8.53033C0.860322 8.67098 1.05109 8.75 1.25 8.75H2C2.19891 8.75 2.38968 8.67098 2.53033 8.53033C2.67098 8.38968 2.75 8.19891 2.75 8ZM8 2.75C8.19891 2.75 8.38968 2.67098 8.53033 2.53033C8.67098 2.38968 8.75 2.19891 8.75 2V1.25C8.75 1.05109 8.67098 0.860322 8.53033 0.71967C8.38968 0.579018 8.19891 0.5 8 0.5C7.80109 0.5 7.61032 0.579018 7.46967 0.71967C7.32902 0.860322 7.25 1.05109 7.25 1.25V2C7.25 2.19891 7.32902 2.38968 7.46967 2.53033C7.61032 2.67098 7.80109 2.75 8 2.75ZM3.23 4.2875C3.3697 4.42606 3.55825 4.50417 3.755 4.505C3.85371 4.50557 3.95155 4.48665 4.04293 4.44933C4.13431 4.412 4.21742 4.35701 4.2875 4.2875C4.42719 4.14698 4.50559 3.95689 4.50559 3.75875C4.50559 3.56061 4.42719 3.37052 4.2875 3.23L3.755 2.6975C3.61152 2.57463 3.42697 2.51043 3.23821 2.51772C3.04945 2.52501 2.8704 2.60326 2.73683 2.73683C2.60326 2.8704 2.52501 3.04945 2.51772 3.23821C2.51043 3.42697 2.57463 3.61152 2.6975 3.755L3.23 4.2875ZM12.23 4.505C12.4268 4.50417 12.6153 4.42606 12.755 4.2875L13.2875 3.755C13.366 3.68776 13.4298 3.60503 13.4748 3.51198C13.5198 3.41893 13.5451 3.31758 13.5491 3.21429C13.5531 3.111 13.5357 3.008 13.498 2.91176C13.4603 2.81551 13.4031 2.7281 13.33 2.65501C13.2569 2.58192 13.1695 2.52473 13.0732 2.48702C12.977 2.44932 12.874 2.43191 12.7707 2.4359C12.6674 2.43989 12.5661 2.46519 12.473 2.51021C12.38 2.55522 12.2972 2.61899 12.23 2.6975L11.75 3.23C11.6103 3.37052 11.5319 3.56061 11.5319 3.75875C11.5319 3.95689 11.6103 4.14698 11.75 4.2875C11.8822 4.41902 12.0587 4.49656 12.245 4.505H12.23ZM14.75 7.25H14C13.8011 7.25 13.6103 7.32902 13.4697 7.46967C13.329 7.61032 13.25 7.80109 13.25 8C13.25 8.19891 13.329 8.38968 13.4697 8.53033C13.6103 8.67098 13.8011 8.75 14 8.75H14.75C14.9489 8.75 15.1397 8.67098 15.2803 8.53033C15.421 8.38968 15.5 8.19891 15.5 8C15.5 7.80109 15.421 7.61032 15.2803 7.46967C15.1397 7.32902 14.9489 7.25 14.75 7.25ZM8 13.25C7.80109 13.25 7.61032 13.329 7.46967 13.4697C7.32902 13.6103 7.25 13.8011 7.25 14V14.75C7.25 14.9489 7.32902 15.1397 7.46967 15.2803C7.61032 15.421 7.80109 15.5 8 15.5C8.19891 15.5 8.38968 15.421 8.53033 15.2803C8.67098 15.1397 8.75 14.9489 8.75 14.75V14C8.75 13.8011 8.67098 13.6103 8.53033 13.4697C8.38968 13.329 8.19891 13.25 8 13.25ZM12.77 11.75C12.6275 11.6707 12.4631 11.6401 12.3016 11.6627C12.1401 11.6852 11.9904 11.7598 11.8751 11.8751C11.7598 11.9904 11.6852 12.1401 11.6627 12.3016C11.6401 12.4631 11.6707 12.6275 11.75 12.77L12.2825 13.3025C12.423 13.4422 12.6131 13.5206 12.8113 13.5206C13.0094 13.5206 13.1995 13.4422 13.34 13.3025C13.4797 13.162 13.5581 12.9719 13.5581 12.7738C13.5581 12.5756 13.4797 12.3855 13.34 12.245L12.77 11.75ZM8 3.875C7.18415 3.875 6.38663 4.11693 5.70827 4.57019C5.02992 5.02345 4.50121 5.66769 4.189 6.42143C3.87679 7.17518 3.7951 8.00458 3.95426 8.80475C4.11342 9.60492 4.50629 10.3399 5.08318 10.9168C5.66008 11.4937 6.39508 11.8866 7.19525 12.0457C7.99542 12.2049 8.82482 12.1232 9.57857 11.811C10.3323 11.4988 10.9766 10.9701 11.4298 10.2917C11.8831 9.61337 12.125 8.81585 12.125 8C12.123 6.90659 11.6878 5.85853 10.9146 5.08537C10.1415 4.31222 9.09341 3.87698 8 3.875ZM8 10.625C7.48082 10.625 6.97331 10.471 6.54163 10.1826C6.10995 9.89417 5.7735 9.4842 5.57482 9.00454C5.37614 8.52489 5.32415 7.99709 5.42544 7.48789C5.52672 6.97869 5.77673 6.51096 6.14384 6.14384C6.51096 5.77673 6.97869 5.52672 7.48789 5.42544C7.99709 5.32415 8.52489 5.37614 9.00454 5.57482C9.4842 5.7735 9.89417 6.10995 10.1826 6.54163C10.471 6.97331 10.625 7.48082 10.625 8C10.625 8.69619 10.3484 9.36387 9.85616 9.85616C9.36387 10.3484 8.69619 10.625 8 10.625Z" fill="#FF721C"/>
<path d="M8 10.625C7.48082 10.625 6.97331 10.471 6.54163 10.1826C6.10995 9.89417 5.7735 9.4842 5.57482 9.00454C5.37614 8.52489 5.32415 7.99709 5.42544 7.48789C5.52672 6.97869 5.77673 6.51096 6.14384 6.14384C6.51096 5.77673 6.97869 5.52672 7.48789 5.42544C7.99709 5.32415 8.52489 5.37614 9.00454 5.57482C9.4842 5.7735 9.89417 6.10995 10.1826 6.54163C10.471 6.97331 10.625 7.48082 10.625 8C10.625 8.69619 10.3484 9.36387 9.85616 9.85616C9.36387 10.3484 8.69619 10.625 8 10.625Z" fill="#FF721C"/>
</svg>
