<svg width="141" height="16" viewBox="0 0 141 16" fill="none" xmlns="http://www.w3.org/2000/svg">
<path d="M23.4086 2.50132C24.7712 1.14975 26.6987 0.364075 28.9593 0.364075C32.583 0.364075 35.3383 2.38719 36.224 5.52498L36.2662 5.67441H33.402L33.3714 5.60257C32.6184 3.83241 30.9283 2.94895 28.9593 2.94895C27.4658 2.94895 26.2252 3.47831 25.3579 4.36978C24.4903 5.26165 23.989 6.5234 23.989 8.00029C23.989 9.51296 24.5269 10.7835 25.4364 11.6758C26.3461 12.5683 27.6347 13.0892 29.1485 13.0892C31.7486 13.0892 33.3243 11.6826 33.3243 10.2746V10.1807C33.3243 10.081 33.3029 10.0315 33.2797 10.0064C33.2586 9.98348 33.2164 9.95999 33.1211 9.95999H28.368V7.52549H34.8804C35.2875 7.52549 35.6317 7.66774 35.8739 7.91889C36.1156 8.16946 36.2473 8.51968 36.2473 8.9213V9.33483C36.2473 11.4272 35.4188 13.0073 34.1084 14.0619C32.801 15.1141 31.0229 15.6365 29.1296 15.6365C26.851 15.6365 24.8814 14.8608 23.4809 13.5146C22.0799 12.1681 21.2551 10.2572 21.2551 8.00029C21.2551 5.76343 22.0459 3.85289 23.4086 2.50132Z" fill="#080610"/>
<path fill-rule="evenodd" clip-rule="evenodd" d="M103.909 0.458065C103.295 0.458065 102.83 0.594138 102.46 0.898601L101.604 2.26367L96.5298 15.4485H99.3197L100.739 11.5765H107.157L108.613 15.4485H111.478L106.385 2.26275C106.144 1.64173 105.855 1.18632 105.453 0.888001C105.051 0.588393 104.55 0.458065 103.909 0.458065ZM103.774 3.34467L101.695 9.0104H106.179L104.045 3.34502C104.019 3.28329 103.998 3.25163 103.98 3.23431C103.967 3.2221 103.949 3.21208 103.909 3.21208C103.882 3.21208 103.863 3.21998 103.843 3.2367C103.822 3.25565 103.798 3.28909 103.774 3.34467Z" fill="#080610"/>
<path d="M0.953125 0.552026H13.5996V3.11812H8.6244V15.4485H5.92835V3.11812H0.953125V0.552026Z" fill="#080610"/>
<path d="M18.748 0.552026H16.0519V15.4485H18.748V0.552026Z" fill="#080610"/>
<path d="M39.601 1.19269C40.02 0.776345 40.62 0.552026 41.3447 0.552026H49.5597V3.11812H42.1203C41.9658 3.11812 41.8509 3.16612 41.7751 3.23968C41.6995 3.31305 41.6523 3.42198 41.6523 3.56434V6.58567H49.2003V9.07656H41.6523V12.4362C41.6523 12.5897 41.7006 12.7033 41.7761 12.7783C41.8516 12.8533 41.9659 12.9013 42.1203 12.9013H49.6543V15.4485H41.3447C40.6207 15.4485 40.0206 15.2293 39.6013 14.8152C39.1818 14.4009 38.9563 13.8045 38.9563 13.0753V2.92525C38.9563 2.20516 39.182 1.60901 39.601 1.19269Z" fill="#080610"/>
<path fill-rule="evenodd" clip-rule="evenodd" d="M52.5917 2.92525C52.5917 1.54453 53.5906 0.552026 54.9802 0.552026H59.596C61.0304 0.552026 62.3183 1.01135 63.2488 1.85628C64.1806 2.70237 64.7463 3.92821 64.7463 5.44397C64.7463 7.67067 63.2074 9.18888 61.2956 9.86562L65.1752 15.4485H61.973L58.4923 10.2795H55.2877V15.4485H52.5917V2.92525ZM55.2877 3.58313C55.2877 3.34241 55.4856 3.11812 55.7558 3.11812H59.596C60.2615 3.11812 60.8655 3.33089 61.3017 3.72428C61.7364 4.11633 62.0124 4.69472 62.0124 5.44397C62.0124 6.184 61.741 6.75765 61.3088 7.1472C60.8752 7.53807 60.2713 7.75104 59.596 7.75104H55.2877V3.58313Z" fill="#080610"/>
<path d="M81.2422 0.552026H68.5957V3.11812H73.5709V15.4485H76.267V3.11812H81.2422V0.552026Z" fill="#080610"/>
<path fill-rule="evenodd" clip-rule="evenodd" d="M85.6751 0.552026C84.2855 0.552026 83.2866 1.54453 83.2866 2.92525V15.4485H85.9827V10.2795H89.1872L92.668 15.4485H95.8701L91.9905 9.86565C93.9023 9.18888 95.4413 7.67067 95.4413 5.44397C95.4413 3.92821 94.8755 2.70237 93.9438 1.85628C93.0132 1.01135 91.7254 0.552026 90.2909 0.552026H85.6751ZM86.4507 3.11812C86.1805 3.11812 85.9827 3.34241 85.9827 3.58313V7.75104H90.2909C90.9662 7.75104 91.5701 7.53807 92.0037 7.1472C92.4359 6.75762 92.7074 6.184 92.7074 5.44397C92.7074 4.69472 92.4313 4.11633 91.9966 3.72428C91.5604 3.33089 90.9565 3.11812 90.2909 3.11812H86.4507Z" fill="#080610"/>
<path fill-rule="evenodd" clip-rule="evenodd" d="M115.786 0.552026C115.061 0.552026 114.461 0.776345 114.042 1.19269C113.623 1.60901 113.397 2.20516 113.397 2.92525V13.0753C113.397 13.8045 113.623 14.4009 114.042 14.8152C114.462 15.2293 115.062 15.4485 115.786 15.4485H119.21C121.41 15.4485 123.379 14.7449 124.799 13.4583C126.22 12.1706 127.084 10.3057 127.084 8.00029C127.084 5.69492 126.22 3.82999 124.799 2.54228C123.379 1.25569 121.41 0.552026 119.21 0.552026H115.786ZM116.217 3.24106C116.141 3.31606 116.093 3.4297 116.093 3.58313V12.4362C116.093 12.5789 116.141 12.6937 116.218 12.7722C116.295 12.8503 116.41 12.9013 116.561 12.9013H119.21C120.66 12.9013 121.944 12.4304 122.865 11.5861C123.786 10.7428 124.35 9.52025 124.35 8.00029C124.35 6.4899 123.786 5.27202 122.866 4.43099C121.944 3.58893 120.66 3.11812 119.21 3.11812H116.561C116.407 3.11812 116.292 3.16606 116.217 3.24106Z" fill="#080610"/>
<path d="M130.447 1.19269C130.866 0.776345 131.466 0.552026 132.19 0.552026H140.405V3.11812H132.966C132.812 3.11812 132.697 3.16612 132.621 3.23968C132.545 3.31305 132.498 3.42198 132.498 3.56434V6.58567H140.046V9.07656H132.498V12.4362C132.498 12.5897 132.546 12.7033 132.622 12.7783C132.697 12.8533 132.812 12.9013 132.966 12.9013H140.5V15.4485H132.19C131.466 15.4485 130.866 15.2293 130.447 14.8152C130.027 14.4009 129.802 13.8045 129.802 13.0753V2.92525C129.802 2.20516 130.028 1.60901 130.447 1.19269Z" fill="#080610"/>
<path d="M70.4665 14.0838C70.4665 14.9412 69.767 15.6362 68.9041 15.6362C68.0413 15.6362 67.3418 14.9412 67.3418 14.0838C67.3418 13.2265 68.0413 12.5315 68.9041 12.5315C69.767 12.5315 70.4665 13.2265 70.4665 14.0838Z" fill="#080610"/>
</svg>
