<svg width="20" height="17" viewBox="0 0 20 17" fill="none" xmlns="http://www.w3.org/2000/svg">
<path d="M20 2.00343C19.2563 2.3432 18.4637 2.5684 17.6375 2.67775C18.4875 2.14923 19.1363 1.3187 19.4412 0.317633C18.6488 0.809704 17.7738 1.15728 16.8412 1.35124C16.0887 0.516805 15.0162 0 13.8462 0C11.5763 0 9.74875 1.91882 9.74875 4.27113C9.74875 4.60959 9.77625 4.93503 9.84375 5.24485C6.435 5.07172 3.41875 3.3703 1.3925 0.778462C1.03875 1.41763 0.83125 2.14923 0.83125 2.93681C0.83125 4.41562 1.5625 5.72651 2.6525 6.48545C1.99375 6.47243 1.3475 6.27326 0.8 5.95953C0.8 5.97255 0.8 5.98947 0.8 6.00639C0.8 8.08142 2.22125 9.80497 4.085 10.202C3.75125 10.297 3.3875 10.3426 3.01 10.3426C2.7475 10.3426 2.4825 10.327 2.23375 10.2697C2.765 11.9607 4.2725 13.2039 6.065 13.2443C4.67 14.3807 2.89875 15.0654 0.98125 15.0654C0.645 15.0654 0.3225 15.0498 0 15.0069C1.81625 16.2266 3.96875 16.9231 6.29 16.9231C13.835 16.9231 17.96 10.4142 17.96 4.77231C17.96 4.58355 17.9538 4.4013 17.945 4.22036C18.7588 3.61894 19.4425 2.86781 20 2.00343Z" fill="white"/>
</svg>
