<svg width="18" height="18" viewBox="0 0 18 18" fill="none" xmlns="http://www.w3.org/2000/svg">
<path fill-rule="evenodd" clip-rule="evenodd" d="M9.07357 16.3459C7.74932 16.3459 6.42507 16.0054 5.297 15.3243L5.00272 15.1784L2.15804 15.9081L2.89373 13.1351L2.69755 12.8432C0.539509 9.38919 1.56948 4.81622 5.10082 2.67568C8.63215 0.535135 13.1935 1.55676 15.3515 5.05946C17.5095 8.56216 16.4796 13.0865 12.9482 15.227C11.8202 15.9568 10.4469 16.3459 9.07357 16.3459ZM12.8501 10.7027L13.3896 10.9459C13.4877 10.9946 13.5368 11.0432 13.5368 11.0432V11.3838C13.4877 11.627 13.4387 11.8703 13.3406 12.0649C13.2916 12.1622 13.1935 12.2595 13.0954 12.3568C12.9973 12.4541 12.8992 12.5027 12.8011 12.6L12.703 12.6973C12.6049 12.7946 12.5068 12.7946 12.3597 12.8919C12.1635 12.9892 11.8692 13.0865 11.624 13.0865H11.1335C10.9864 13.0378 10.7902 13.0378 10.6431 12.9892C9.3188 12.6486 8.14169 12.0162 7.11172 11.1405C7.01362 10.9946 6.86648 10.8973 6.71935 10.7514L6.52316 10.5568C5.73842 9.82703 5.14986 9 4.70845 8.07568L4.6594 7.92973C4.51226 7.58919 4.41417 7.2 4.41417 6.81081C4.41417 6.27568 4.61035 5.74054 4.95368 5.3027C5.05177 5.20541 5.10082 5.10811 5.19891 5.01081C5.297 4.96216 5.39509 4.86486 5.49319 4.81622L5.54223 4.76757C5.64033 4.76757 5.73842 4.71892 5.83651 4.71892H6.22888H6.37602C6.52316 4.76757 6.62125 4.81622 6.71935 4.96216C6.86648 5.25405 7.45504 6.56757 7.50409 6.81081C7.55313 6.95676 7.50409 7.15135 7.40599 7.2973C7.3079 7.39459 7.25886 7.54054 7.16076 7.63784C7.01362 7.78378 6.81744 8.02703 6.81744 8.02703C6.76839 8.07568 6.76839 8.17297 6.76839 8.27027C6.81744 8.36757 6.81744 8.41622 6.86648 8.46486L6.91553 8.56216C7.16076 9 7.50409 9.38919 7.84741 9.72973C7.9455 9.82703 8.09264 9.92432 8.19074 10.0216C8.58311 10.4108 9.07357 10.7027 9.61308 10.9459L9.85831 11.0432C9.90736 11.0919 10.0054 11.1405 10.0545 11.1405H10.1035C10.2016 11.1405 10.2997 11.0919 10.3488 10.9946C11.0354 10.2162 11.0845 10.1676 11.0845 10.1676C11.1826 10.1189 11.2807 10.0703 11.4278 10.0703C11.4768 10.0703 11.5259 10.1189 11.5749 10.1189C12.0654 10.3622 12.8501 10.7027 12.8501 10.7027Z" fill="#080610"/>
<path fill-rule="evenodd" clip-rule="evenodd" d="M9.07357 0C11.4278 0 13.733 0.924324 15.4005 2.62703C17.0681 4.28108 18 6.51892 18 8.9027C18 13.8162 13.9782 17.8541 9.02452 17.8541C7.55313 17.8541 6.08174 17.5135 4.75749 16.7838L0 18L1.2752 13.3784C0.539509 12.0162 0.0980927 10.5081 0.0980927 8.95135C0.0490463 4.03784 4.07084 0 9.07357 0ZM5.00272 15.1784L5.297 15.3243C6.42507 16.0054 7.74932 16.3459 9.07357 16.3459C10.4469 16.3459 11.8202 15.9568 12.9482 15.227C16.4796 13.0865 17.5095 8.56216 15.3515 5.05946C13.1935 1.55676 8.63215 0.535135 5.10082 2.67568C1.56948 4.81622 0.539509 9.38919 2.69755 12.8432L2.89373 13.1351L2.15804 15.9081L5.00272 15.1784Z" fill="#080610"/>
</svg>
