<svg width="22" height="15" viewBox="0 0 22 15" fill="none" xmlns="http://www.w3.org/2000/svg">
<path fill-rule="evenodd" clip-rule="evenodd" d="M20.051 1.11973C20.3803 1.44401 20.6176 1.8476 20.7392 2.29028C21.4396 5.06675 21.2778 9.45177 20.7528 12.3354C20.6312 12.7781 20.3939 13.1816 20.0646 13.5059C19.7352 13.8302 19.3254 14.0639 18.8759 14.1837C17.2302 14.6257 10.6065 14.6257 10.6065 14.6257C10.6065 14.6257 3.98281 14.6257 2.33709 14.1837C1.88754 14.0639 1.47771 13.8302 1.1484 13.5059C0.819094 13.1816 0.581801 12.7781 0.460156 12.3354C-0.244374 9.57097 -0.0512406 5.18327 0.446555 2.30368C0.5682 1.86099 0.805493 1.45741 1.1348 1.13312C1.46411 0.808839 1.87394 0.575167 2.32349 0.455378C3.96921 0.0133935 10.5929 0 10.5929 0C10.5929 0 17.2165 0 18.8623 0.441984C19.3118 0.561774 19.7216 0.795446 20.051 1.11973ZM8.66865 10.488C8.36956 10.6562 8 10.4401 8 10.0969V3.76717C8 3.42401 8.36956 3.20788 8.66865 3.37612L14.2951 6.54098C14.6 6.71251 14.6 7.15157 14.2951 7.3231L8.66865 10.488Z" fill="white"/>
</svg>
